<svg aria-hidden="true" style="position: absolute; width: 20; height: 20; overflow: hidden;" version="1.1"
  xmlns="http://www.w3.org/2000/svg"
  xmlns:xlink="http://www.w3.org/1999/xlink">
  <defs>
    <symbol id="icon-glass2" viewBox="0 0 32 32">
      <path fill="#000" style="fill: var(--color1, #000)" d="M16.367 18.705l0.631 0.663 1.831-1.705-0.633-0.663-1.83 1.705z"></path>
      <path fill="#000" style="fill: var(--color1, #000)" d="M10.601 1.229c-5.232 0.133-9.438 4.423-9.438 9.688 0 5.348 4.34 9.687 9.688 9.687s9.688-4.34 9.688-9.688-4.34-9.688-9.688-9.688c-0.084 0-0.167-0.002-0.25 0zM10.851 2.166c4.83 0 8.75 3.92 8.75 8.75s-3.92 8.75-8.75 8.75-8.75-3.92-8.75-8.75 3.92-8.75 8.75-8.75z"></path>
      <path fill="#000" style="fill: var(--color1, #000)" d="M10.601 1.229c-5.232 0.133-9.438 4.423-9.438 9.688 0 5.348 4.34 9.687 9.688 9.687s9.688-4.34 9.688-9.688-4.34-9.688-9.688-9.688c-0.084 0-0.167-0.002-0.25 0zM10.851 2.166c4.83 0 8.75 3.92 8.75 8.75s-3.92 8.75-8.75 8.75-8.75-3.92-8.75-8.75 3.92-8.75 8.75-8.75z"></path>
      <path fill="#000" style="fill: var(--color1, #000)" d="M19.074 13.909c-0.005 0.014-0.011 0.030-0.017 0.046-1.654 4.541-6.675 6.882-11.216 5.228s-6.882-6.675-5.228-11.216c0.006-0.016 0.012-0.032 0.018-0.049l-0.001 0.002c0.005-0.014 0.011-0.030 0.017-0.046 1.654-4.541 6.675-6.882 11.216-5.228s6.882 6.675 5.228 11.216c-0.006 0.016-0.012 0.032-0.018 0.049l0.001-0.002z"></path>
      <path fill="#000" style="fill: var(--color1, #000)" d="M13.595 2.944c-2.964-1.079-7.966-0.52-9.323 3.391 1.469 0.087 3.546 1.527 5.034 2.069 4.721 1.72 8.36 2.23 9.335 6.21 0.064-0.149 0.125-0.299 0.181-0.454 1.652-4.538-0.689-9.563-5.227-11.216z"></path>
      <path fill="#000" style="fill: var(--color1, #000)" opacity="0.7" d="M2.82 11.158c0.060 1.93 0.819 3.777 2.113 5.192l0.867-0.93c-1.275-1.139-2.334-2.539-2.981-4.262zM5.961 15.561l-0.875 0.952c0.819 0.845 1.836 1.524 3.016 1.954 1.297 0.473 2.637 0.586 3.914 0.398-2.079-0.71-4.267-1.76-6.055-3.304z"></path>
      <path fill="#000" style="fill: var(--color1, #000)" opacity="0.2" d="M10.618 1.86c-4.891 0.124-8.822 4.135-8.822 9.056 0 4.999 4.057 9.056 9.056 9.056s9.056-4.058 9.056-9.056c0-4.999-4.058-9.056-9.056-9.056-0.078 0-0.156-0.002-0.234 0zM10.851 2.736c4.515 0 8.18 3.665 8.18 8.18s-3.665 8.18-8.18 8.18c-4.515 0-8.18-3.665-8.18-8.18s3.665-8.18 8.18-8.18z"></path>
      <path fill="#000" style="fill: var(--color1, #000)" d="M16.57 19.694l9.932 10.992c1.041-0.41 2.483-1.878 2.988-2.825l-10.204-10.773-2.716 2.605z"></path>
    </symbol>
  </defs>
</svg>
